<svg xmlns="http://www.w3.org/2000/svg" width="48" height="48" viewBox="0 0 48 48" fill="none">
  <rect width="48" height="48" rx="8" fill="#3366FF"/>
  <path d="M24 10C16.268 10 10 16.268 10 24C10 31.732 16.268 38 24 38C31.732 38 38 31.732 38 24C38 16.268 31.732 10 24 10ZM24 14C27.866 14 31.22 16.298 32.992 19.6H30.8C29.27 17.504 26.8 16.2 24 16.2C19.692 16.2 16.2 19.692 16.2 24C16.2 28.308 19.692 31.8 24 31.8C28.308 31.8 31.8 28.308 31.8 24H34C34 29.522 29.522 34 24 34C18.478 34 14 29.522 14 24C14 18.478 18.478 14 24 14Z" fill="white"/>
  <path d="M24 20C21.794 20 20 21.794 20 24C20 26.206 21.794 28 24 28C26.206 28 28 26.206 28 24H24V20Z" fill="white"/>
</svg>
